# xmcd
#
# Track frame offsets:
#	183
#	12300
#	25895
#	39180
#	54155
#	66858
#	79383
#	91703
#	102328
#	115598
#	128733
#	139775
#	152288
#	165323
#	178463
#	189283
#	203063
#	213808
#
# Disc length: 3004 seconds
#
# Revision: 3
# Processed by: cddbd v1.5.2PL0 Copyright (c) Steve Scherf et al.
# Submitted via: audiograbber 1.83.01
#
DISCID=db0bba12
DTITLE=Sampler Country - Country Gold - Volume 1 CD1
DYEAR=1990
DGENRE=Country
TTITLE0=Parton, Dolly - The bargain store
TTITLE1=Lee, Dickey - 9.999.999 tears
TTITLE2=Milsap, Ronnie - (I'd be) A legend in my time
TTITLE3=Reed, Jerry - Lord, Mr. Ford
TTITLE4=Stewart, Gary - She's actin' single (I'm drinkin' doubles)
TTITLE5=Jennings, Waylon - I'm A ramblin' man
TTITLE6=Dave and Sugar - The door is always open
TTITLE7=Reed, Jerry - Blue moon of Kentucky
TTITLE8=Bare, Bobby - Marie Laveau
TTITLE9=Jennings, Waylon - Are you sure Hank done it this way
TTITLE10=Rich, Charlie - She called me baby
TTITLE11=Parton, Dolly and Porter Wagoner - Please don't stop loving me
TTITLE12=Milsap, Ronnie - What goes on when the sun goes down
TTITLE13=Dave and Sugar - I'm gonna love you
TTITLE14=Flatt, Lester - Foggy mountain breakdown
TTITLE15=Brown, Jim Ed and Helen Cornelius - I don't want to have to marry you
TTITLE16=Anderson, Liz - Husband hunting
TTITLE17=West, Dottie - Are you lonesome tonight
EXTD=
EXTT0=
EXTT1=
EXTT2=
EXTT3=
EXTT4=
EXTT5=
EXTT6=
EXTT7=
EXTT8=
EXTT9=
EXTT10=
EXTT11=
EXTT12=
EXTT13=
EXTT14=
EXTT15=
EXTT16=
EXTT17=
PLAYORDER=
